<svg width="194" height="244" viewBox="0 0 194 244" fill="none" xmlns="http://www.w3.org/2000/svg">
<path d="M58.9883 236.5H66.4883H80.5215C95.8124 236.5 109.96 233.966 122.868 228.782L122.882 228.776L122.897 228.77C135.827 223.514 147.016 216.056 156.371 206.383C165.82 196.615 173.039 184.985 178.063 171.598C183.209 158.144 185.727 143.411 185.727 127.486V117.379C185.727 101.368 183.213 86.6284 178.059 73.2575C173.036 59.8745 165.818 48.2477 156.371 38.4826C146.935 28.7286 135.752 21.2637 122.902 16.0972C110.088 10.8077 96.0748 8.21875 80.9609 8.21875H66.4883H58.9883H33.207H25.707H15.043H7.54297V15.7188V229V236.5H15.043H26.5216H34.0859H58.9883Z" fill="url(#paint0_linear_2_26)" stroke="black" stroke-width="5"/>
<path d="M34.6953 51.8125H87.7227C98.5951 51.8125 107.938 53.4401 115.75 56.6953C123.628 59.9505 129.682 64.7682 133.914 71.1484C138.146 77.5286 140.262 85.3737 140.262 94.6836C140.262 102.301 138.96 108.844 136.355 114.312C133.816 119.716 130.203 124.241 125.516 127.887C120.893 131.467 115.457 134.332 109.207 136.48L99.9297 141.363H53.8359L53.6406 118.512H87.918C93.0612 118.512 97.3255 117.6 100.711 115.777C104.096 113.954 106.635 111.415 108.328 108.16C110.086 104.905 110.965 101.129 110.965 96.832C110.965 92.2747 110.118 88.3359 108.426 85.0156C106.733 81.6953 104.161 79.1562 100.711 77.3984C97.2604 75.6406 92.931 74.7617 87.7227 74.7617H63.9922V194H34.6953V51.8125ZM114.188 194L81.7656 130.621L112.723 130.426L145.535 192.633V194H114.188Z" fill="black"/>
<defs>
<linearGradient id="paint0_linear_2_26" x1="147" y1="16" x2="15" y2="229" gradientUnits="userSpaceOnUse">
<stop stop-color="#1788B8"/>
<stop offset="0.557292" stop-color="#37CDD7"/>
<stop offset="0.84375" stop-color="#77C4C9"/>
</linearGradient>
</defs>
</svg>
